<?xml version="1.0" encoding="utf-8"?>
<!-- Generator: Adobe Illustrator 24.0.0, SVG Export Plug-In . SVG Version: 6.00 Build 0)  -->
<svg version="1.1" id="Layer_1" xmlns="http://www.w3.org/2000/svg" xmlns:xlink="http://www.w3.org/1999/xlink" x="0px" y="0px"
	 viewBox="0 0 663.1 664" style="enable-background:new 0 0 663.1 664;" xml:space="preserve">
<style type="text/css">
	.st0{fill:#0E1F39;}
	.st1{fill:#42BA84;}
</style>
<title>icon</title>
<g id="Layer_2_1_">
	<g id="Layer_7">
		<path class="st0" d="M253.6,32.4h155.9c122.2,0,221.2,99,221.2,221.2v156.8c0,122.2-99,221.2-221.2,221.2H253.6
			c-122.2,0-221.2-99-221.2-221.2V253.6C32.4,131.4,131.4,32.4,253.6,32.4z"/>
		<path class="st1" d="M175.3,599.1L64.8,488.5c-86.4-86.4-86.4-226.5,0-312.9L175.3,64.9c86-86.3,225.7-86.5,312-0.5
			c0.2,0.2,0.3,0.3,0.5,0.5l110.5,110.7c86.4,86.4,86.4,226.5,0,312.9L487.8,599.1C401.6,685.4,261.7,685.5,175.3,599.1
			C175.3,599.2,175.3,599.2,175.3,599.1z"/>
		<path class="st0" d="M307.9,569.7c0.7-1,1.5-1.9,2.4-2.7L136.4,310.9c-1.5,1.2-3.3,2.1-5.1,2.7l-17.1,135.3
			c11.1,3.1,17.5,14.5,14.5,25.6c-0.1,0.4-0.2,0.8-0.4,1.2L307.9,569.7z"/>
		<path class="st0" d="M537.1,524.5l-191.8,55c0.1,0.8,0.1,1.7,0,2.5c0,11.7-9.5,21.2-21.2,21.2c-11.7,0-21.2-9.5-21.2-21.2
			c0-2.3,0.4-4.5,1.1-6.6L125,481.5c-7,9.2-20.1,11.1-29.3,4.1c-9.2-7-11.1-20.1-4.1-29.3c3.8-5.1,9.7-8.1,16-8.3l16.8-133.7
			c-10.5-0.5-18.5-9.3-18.1-19.8c0.5-10.5,9.3-18.5,19.8-18.1c4,0.2,7.8,1.6,10.9,4.1L253.2,123c-3.7-3.8-5.9-8.8-6.1-14.1
			c0-11.7,9.5-21.2,21.2-21.2c11.7,0,21.2,9.5,21.2,21.2c0.1,1.4,0.1,2.7,0,4.1l247.6,92c3.7-6.6,10.7-10.8,18.2-10.7
			c11.7-0.9,21.9,7.9,22.8,19.6c0.9,11.7-7.9,21.9-19.6,22.8v258.1c3.7,0.6,7.2,2.2,10,4.5c92.9-131.4,61.7-313.2-69.7-406
			s-313.2-61.7-406,69.7s-61.7,313.2,69.7,406c118.2,83.6,279.8,67.7,379.5-37.3C539.9,529.6,538.2,527.2,537.1,524.5z"/>
		<path class="st0" d="M325.1,561.3c2.1,0,4.2,0.4,6.2,1L434,353.3c-5.4-3.7-8.6-9.8-8.8-16.4l-281.7-36.5c-0.5,1.9-1.3,3.6-2.4,5.2
			l174.7,257.7C318.7,562,321.9,561.2,325.1,561.3z"/>
		<path class="st0" d="M541.8,499.8L454,356.2c-2.5,1-5.2,1.6-7.9,1.6c-2.1,0-4.2-0.3-6.2-0.8L336.7,565.4c2.9,2.1,5.3,4.9,6.8,8.2
			l191.2-55.3c-0.1-0.8-0.1-1.7,0-2.5C534.6,509.6,537.2,503.8,541.8,499.8z"/>
		<path class="st0" d="M552.1,494.7V235.9c-2.9-0.4-5.6-1.5-8.1-3.1l-81.7,90.9c7.5,8.7,6.5,21.8-2.2,29.3c-0.2,0.1-0.3,0.3-0.5,0.4
			L547.5,497C548.9,496.1,550.5,495.3,552.1,494.7z"/>
		<path class="st0" d="M268.6,129.2c-3.5,0.2-6.9-0.5-10-2L141.4,285.8c1.4,2.5,2.3,5.2,2.5,8.1l282.7,36.9c0.9-3.1,2.5-5.9,4.7-8.2
			L278.2,127.2C275.2,128.6,271.9,129.3,268.6,129.2z"/>
		<path class="st0" d="M286.2,118.6c-0.7,1.5-1.7,2.8-2.8,4l152.5,195.9c6.6-4,14.9-4,21.5,0l81.7-90.7c-3-3.7-4.6-8.4-4.7-13.1
			c-0.1-1.4-0.1-2.7,0-4.1L286.2,118.6z"/>
		<path class="st1" d="M537.8,242.7c-23.2-23.3-54.7-36.4-87.6-36.4h-1.2c-17.8,0.1-35.5,4.1-51.6,11.6
			c-24,11.2-43.9,29.7-56.9,52.8l-54.2,99.4l0,0l-1.5,2.6c-3.7,6.4-8.3,12.3-13.5,17.5c-15.4,15.6-36.4,24.3-58.2,24.2h-1.9
			L303.7,245l-3.8-3.7c-50.1-48-129.5-46.3-177.5,3.7S76,374.6,126.1,422.6c46.8,44.9,120.1,46.7,169.1,4.3
			c10.8-9.5,20-20.8,27.1-33.3l54.2-99.6l0,0c0.5-1,1.1-2,1.8-3c3.6-6.4,8.2-12.3,13.5-17.3c32.2-32.2,84.3-32.2,116.5,0
			c15.5,15.5,24.2,36.5,24.1,58.4v82.5h-82.2c-21.9,0.1-42.9-8.7-58.2-24.2l-3.9-4.1l-6.5-7.6l-22.1,40.6l3.8,3.7
			c23.4,22.5,54.5,35,87,34.9h113.5c6.5,0.1,11.8-5.1,11.9-11.6c0-0.1,0-0.2,0-0.3V333.6C575.7,299.5,562.1,266.7,537.8,242.7z
			 M248,257.6l-79.1,144.1c-4.9-3.3-9.5-7.2-13.5-11.5l0,0c-31.5-32.9-30.3-85.1,2.6-116.6C182,250.6,217.5,244.3,248,257.6z"/>
	</g>
</g>
</svg>
